<svg viewBox="0 0 1164.463 1068.42" xmlns="http://www.w3.org/2000/svg"><path d="M382.312 824.172C233.766 795.9 137.147 735.738 95.064 645.395l91.046-42.384c27.62 59.41 99.934 100.437 214.934 122.533zm47.155 221.16q-23.05 0-46.25-1.656c-154.166-6.03-290.47-77.69-382.548-187.65l-.67-.82 80.35-60.26c75.583 88.177 185.824 144.778 309.36 148.53l.637.014c12.09.97 26.176 1.524 40.39 1.524 147.232 0 280.597-59.37 377.46-155.477l-.034.034.452-.45c116.8-113.324 189.288-271.755 189.288-447.115 0-22.65-1.21-45.02-3.567-67.044l.238 2.737L993.47 267l31.636-94.76h-99.08l-13.91-11.5c-29.087-24.22-66.84-38.92-108.028-38.92-2.894 0-5.77.074-8.63.217l.402-.016h-2.41c-1.137-.035-2.473-.055-3.815-.055-59.084 0-109.003 39.245-125.11 93.09l-.236.924c-12.383 31.598-20.152 68.154-21.48 106.348l-.015.566v48.66l-48.66 1.558c-125.848 3.917-262.944-48.56-417.315-160.146 1.205 12.052 3.164 25.812 6.127 41.28 9.943 53.85 27.667 101.908 52.19 145.638l-1.218-2.366-86.175 51.624C116.06 393.477 92.8 328.58 81.743 259.607l-.437-3.303c-14.11-86.275-5.373-144.076 26.013-171.897l31.787-28.122L172.15 82.95C315.274 198.454 438.31 260.323 546.83 271.17c4.996-34.61 13.47-65.763 25.238-95.245l-.984 2.792c31.528-92.11 117.356-157.15 218.374-157.15.98 0 1.958.006 2.935.018h-.148c3.55-.168 7.708-.263 11.89-.263 58.944 0 113.47 18.922 157.832 51.023l-.787-.542h203.283l-68.95 206.748c1.69 18.582 2.652 40.193 2.652 62.028 0 203.878-83.963 388.145-219.196 520.11l-.15.144c-114.755 114.027-272.9 184.504-447.507 184.504-.648 0-1.297 0-1.944-.003h.1zM211.27 664.63C121.082 597.362 58.45 497.48 40.83 382.76l-.305-2.416 99.382-14.513c13.667 89.74 61.564 166.29 129.7 217.277l.867.62z"/></svg>